<?xml version="1.0" encoding="UTF-8" standalone="no"?>
<svg width="32px" height="32px" viewBox="0 0 32 32" version="1.1" xmlns="http://www.w3.org/2000/svg" xmlns:xlink="http://www.w3.org/1999/xlink" xmlns:sketch="http://www.bohemiancoding.com/sketch/ns">
    <!-- Generator: Sketch 3.3.3 (12072) - http://www.bohemiancoding.com/sketch -->
    <title>noun_106743_cc</title>
    <desc>Created with Sketch.</desc>
    <defs></defs>
    <g id="Page-1" stroke="none" stroke-width="1" fill="none" fill-rule="evenodd" sketch:type="MSPage">
        <g id="noun_106743_cc" sketch:type="MSLayerGroup" fill="#FFFFFF">
            <g id="Group" sketch:type="MSShapeGroup">
                <circle id="Oval" cx="25.001" cy="29" r="3"></circle>
                <path d="M11,32 C12.6568542,32 14,30.6568542 14,29 C14,27.3431458 12.6568542,26 11,26 C9.34314575,26 8,27.3431458 8,29 C8,30.6568542 9.34314575,32 11,32 Z" id="Oval"></path>
                <path d="M30,6 L8.602,6 L8,2 C7.703,0.735 7.105,0 6,0 L2,0 C0.895,0 0,0.895 0,2 C0,3.105 0.895,4 2,4 L4.301,4 L7,22 C7.203,23.203 7.895,24 9,24 L27.001,24 C28.105,24 28.75,23.094 29,22 C29,22 31.836,8.774 31.941,8.34 C32.281,6.891 31.105,6 30,6 L30,6 Z" id="Shape"></path>
            </g>
        </g>
    </g>
</svg>