<?xml version="1.0" encoding="UTF-8" standalone="no"?>
<svg width="78px" height="86px" viewBox="0 0 78 86" version="1.1" xmlns="http://www.w3.org/2000/svg" xmlns:xlink="http://www.w3.org/1999/xlink" xmlns:sketch="http://www.bohemiancoding.com/sketch/ns">
    <!-- Generator: Sketch 3.3.3 (12072) - http://www.bohemiancoding.com/sketch -->
    <title>flyer</title>
    <desc>Created with Sketch.</desc>
    <defs></defs>
    <g id="Page-1" stroke="none" stroke-width="1" fill="none" fill-rule="evenodd" sketch:type="MSPage">
        <g id="flyer" sketch:type="MSLayerGroup" transform="translate(-1.000000, 0.000000)" fill="#FFFFFF">
            <g id="Group" sketch:type="MSShapeGroup">
                <circle id="Oval" cx="13.269" cy="82.494" r="2.682"></circle>
                <path d="M76.949,50.3 L69.888,50.3 L69.888,46.727 C69.888,46.255 69.697,45.794 69.364,45.463 C69.033,45.128 68.572,44.939 68.1,44.939 L67.206,44.939 L67.206,44.938 L67.206,20.367 L67.2,20.367 C67.197,17.677 65.677,15.101 63.077,13.888 C60.477,12.677 57.527,13.168 55.465,14.896 L55.459,14.889 L32.069,34.52 C31.654,34.867 31.348,35.292 31.134,35.753 L31.124,35.748 L23.216,52.707 L15.218,48.976 C14.327,48.561 13.258,48.951 12.843,49.841 L1.166,74.877 C0.75,75.769 1.14,76.838 2.031,77.254 L9.22,80.605 C9.945,79.039 11.538,78.022 13.272,78.022 C13.927,78.022 14.56,78.164 15.156,78.442 C15.156,78.442 15.156,78.442 15.156,78.443 L23.847,59.808 L23.849,59.809 L32.859,40.489 C34.078,41.057 35.566,40.919 36.664,39.997 L47.096,31.244 L39.167,48.248 L39.168,48.248 L24.66,79.356 C23.616,81.592 24.584,84.251 26.818,85.295 C29.058,86.337 31.714,85.368 32.757,83.134 L46.74,53.152 L46.74,52.085 C46.74,50.114 48.344,48.509 50.315,48.509 L54.823,48.509 L60.056,37.284 L60.056,44.934 L60.056,44.935 L59.161,44.935 C58.689,44.935 58.228,45.124 57.896,45.457 C57.566,45.79 57.374,46.251 57.374,46.724 L57.374,50.3 L50.314,50.3 C49.332,50.3 48.527,51.104 48.527,52.087 L48.527,65.742 C48.527,66.725 49.332,67.529 50.314,67.529 L76.947,67.529 C77.929,67.529 78.734,66.725 78.734,65.742 L78.734,52.086 C78.736,51.104 77.932,50.3 76.949,50.3 L76.949,50.3 Z M66.312,50.3 L60.952,50.3 L60.952,48.511 L66.312,48.511 L66.312,50.3 L66.312,50.3 Z" id="Shape"></path>
                <circle id="Oval" cx="66.667" cy="6.194" r="5.808"></circle>
                <path d="M64.504,69.318 L54.643,69.318 L61.217,83.418 C62.259,85.655 64.919,86.623 67.155,85.581 C69.392,84.537 70.359,81.879 69.318,79.642 L64.504,69.318 L64.504,69.318 Z" id="Shape"></path>
            </g>
        </g>
    </g>
</svg>